<svg width="40" height="40" viewBox="0 0 40 40" fill="none" xmlns="http://www.w3.org/2000/svg">
<g clip-path="url(#clip0_191243_648)">
<path d="M20 39.375C30.7005 39.375 39.375 30.7005 39.375 20C39.375 9.29948 30.7005 0.625 20 0.625C9.29948 0.625 0.625 9.29948 0.625 20C0.625 30.7005 9.29948 39.375 20 39.375Z" fill="#30BF39"/>
<path d="M25 21.9375C24.75 21.8125 23.4375 21.0625 23.1875 21C22.9375 20.875 22.75 20.875 22.5625 21.125C22.375 21.375 21.8125 22 21.6875 22.125C21.5 22.3125 21.375 22.3125 21.125 22.1875C20.875 22.0625 20 21.75 19 20.75C18.25 20 17.6875 19.125 17.5625 18.8125C17.4375 18.5625 17.5625 18.375 17.6875 18.25C17.8125 18.125 17.9375 17.9375 18.125 17.8125C18.3125 17.6875 18.3125 17.5625 18.4375 17.375C18.5625 17.1875 18.5 17.0625 18.4375 16.875C18.375 16.6875 17.875 15.375 17.6875 14.8125C17.5 14.25 17.25 14.375 17.125 14.3125C16.9375 14.3125 16.8125 14.25 16.625 14.25C16.375 14.25 16.0625 14.375 15.875 14.5625C15.625 14.8125 14.875 15.4375 14.875 16.75C14.875 18.0625 15.75 19.4375 15.875 19.5625C16 19.75 17.625 22.625 20.3125 23.8125C23 25 23 24.625 23.5 24.625C24 24.625 25.125 24 25.375 23.4375C25.625 22.8125 25.625 22.25 25.5625 22.1875C25.4375 22.1875 25.25 22.125 25 21.9375ZM20 28.375C18.25 28.375 16.625 27.875 15.1875 26.9375L11.8125 28L12.9375 24.75C11.875 23.25 11.25 21.4375 11.25 19.5625C11.25 14.6875 15.1875 10.75 20.0625 10.75C24.9375 10.75 28.8125 14.6875 28.8125 19.5625C28.8125 24.4375 24.875 28.375 20 28.375ZM20 9C14.1875 9 9.4375 13.75 9.4375 19.5625C9.4375 21.5 9.9375 23.375 10.9375 25L9 30.6875L14.875 28.8125C16.4375 29.6875 18.1875 30.125 20 30.125C25.8125 30.125 30.5625 25.375 30.5625 19.5625C30.5625 13.75 25.875 9 20 9Z" fill="white"/>
</g>
<defs>
<clipPath id="clip0_191243_648">
<rect width="40" height="40" fill="white"/>
</clipPath>
</defs>
</svg>
